<?xml version="1.0" encoding="UTF-8"?>
<svg width="208px" height="32px" viewBox="0 0 208 32" version="1.1" xmlns="http://www.w3.org/2000/svg" xmlns:xlink="http://www.w3.org/1999/xlink">
    <!-- Generator: Sketch 62 (91390) - https://sketch.com -->
    <title>logo</title>
    <desc>Created with Sketch.</desc>
    <defs>
        <path d="M45.4391192,22.0933145 C44.9853632,21.6932028 44.4358648,21.4901677 43.8060516,21.4901677 C43.1782802,21.4901677 42.5711548,21.7260857 42.0057749,22.1888735 L40.3906306,23.4585052 C38.4181536,24.9971586 36.0831256,25.7775198 33.4504336,25.7775198 C31.6730717,25.7775198 30.008468,25.3710081 28.5035865,24.5687986 C27.5016934,24.0356106 26.6937809,23.394505 26.085748,22.6543095 C27.0783391,20.8929795 27.6850108,18.8893315 27.903948,16.6610207 L43.2674433,16.6610207 C44.6724985,16.6610207 45.5786491,16.4635028 46.038077,16.0576532 L46.0639411,16.0316117 C46.3926873,15.6566587 46.5526362,15.0766844 46.5526362,14.2585851 C46.5526362,11.1122023 45.6911806,8.21144787 43.9918646,5.63554969 C41.5114078,1.89573041 37.7229995,6.03291002e-15 32.7325918,6.03291002e-15 C29.0183726,6.03291002e-15 25.8425348,1.19062463 23.2763181,3.54097724 C20.7105552,1.19062463 17.5342637,6.03291002e-15 13.8204982,6.03291002e-15 C8.82963671,6.03291002e-15 5.04122842,1.8959511 2.56031785,5.63599107 C0.861455639,8.21144787 0,11.1122023 0,14.2585851 C0,15.0766844 0.159722089,15.6566587 0.488922018,16.0316117 L0.514786106,16.0576532 C0.973987111,16.4635028 1.88013771,16.6610207 3.28564671,16.6610207 L18.6486882,16.6610207 C18.8680792,18.8893315 19.474524,20.8932002 20.467342,22.6545302 C19.8593091,23.3940636 19.0509429,24.0353899 18.0490498,24.5687986 C16.5443951,25.3710081 14.8800183,25.7775198 13.1022026,25.7775198 C10.4697375,25.7775198 8.13470949,24.9971586 6.16336684,23.4589466 L4.55139889,22.1919631 C3.98170831,21.7263064 3.37458288,21.4901677 2.74681154,21.4901677 C2.11654455,21.4901677 1.56704612,21.6932028 1.11283643,22.0937559 C0.652501032,22.5022538 0.418589848,23.0001313 0.418589848,23.5745884 C0.418589848,24.5665917 1.30273328,25.63054 3.1220677,26.8282267 C6.07102751,28.75684 9.42859454,29.7347191 13.1022026,29.7347191 C17.198938,29.7347191 20.6170815,28.5264393 23.2763181,26.1429831 C25.9355548,28.52666 29.3536982,29.7347191 33.4504336,29.7347191 C37.1240417,29.7347191 40.4816087,28.75684 43.4312492,26.8275647 C45.2499029,25.6307607 46.1340464,24.5665917 46.1340464,23.5745884 C46.1340464,23.0001313 45.9003621,22.5020331 45.4391192,22.0933145 L45.4391192,22.0933145 Z M25.702778,22.1356871 C25.5655168,21.927576 25.4423221,21.713065 25.3343281,21.4914918 C24.633729,20.0918734 24.1182622,18.4678129 23.7992718,16.6610207 L27.3154265,16.6610207 C27.1094214,18.6862963 26.5701324,20.5153783 25.702778,22.1356871 L25.702778,22.1356871 Z M23.2763181,25.3487184 C23.2168761,25.2908975 23.1551653,25.2357249 23.0966308,25.1768006 C22.347026,24.4202739 21.7067763,23.5913609 21.1686218,22.696682 C21.3902816,22.39235 21.5826741,22.0736731 21.7451187,21.7406513 C22.4318783,20.3681778 22.9450763,18.7898001 23.2763181,17.0441392 C23.6075599,18.7893588 24.120531,20.3675157 24.8063831,21.7386651 C24.9692815,22.0721282 25.1623546,22.3919086 25.3842413,22.6964613 C24.8460868,23.5913609 24.2056103,24.4204946 23.4557786,25.1768006 C23.3974709,25.2359456 23.335987,25.2908975 23.2763181,25.3487184 L23.2763181,25.3487184 Z M19.1385178,14.7350557 C19.1385178,14.3653993 19.1532648,14.0030257 19.1748182,13.6437417 L23.060784,13.6437417 L23.4920791,13.6437417 L27.377818,13.6437417 C27.3993714,14.0030257 27.4143453,14.3653993 27.4143453,14.7350557 C27.4143453,15.1965193 27.3957414,15.6473897 27.3646591,16.0914188 L23.4405778,16.0914188 L23.1122853,16.0914188 L19.1879772,16.0914188 C19.1571217,15.6473897 19.1385178,15.1965193 19.1385178,14.7350557 L19.1385178,14.7350557 Z M20.9338031,7.40857625 C21.832013,8.78127045 22.4670444,10.6845043 22.8221084,13.0739191 L19.2183788,13.0739191 C19.415082,10.9945743 19.9879489,9.10083013 20.9338031,7.40857625 L20.9338031,7.40857625 Z M18.6294036,13.0739191 L5.00583546,13.0739191 C5.39515805,10.777415 5.94851341,9.01674709 6.65251574,7.83649491 C8.24814848,5.11913419 10.6122169,3.79852292 13.8799402,3.79852292 C16.7209061,3.79852292 18.9663174,4.83863671 20.5614964,6.88973315 C19.4847335,8.72587716 18.8376776,10.7926426 18.6294036,13.0739191 L18.6294036,13.0739191 Z M23.2763181,4.34274541 C23.3652543,4.43102156 23.4553248,4.51642874 23.5419922,4.60779456 C24.213551,5.3093693 24.7964005,6.06148213 25.2943976,6.86038133 C25.2580971,6.91069874 25.2204354,6.95836786 25.1850424,7.00978872 C24.3092935,8.31031717 23.6694976,10.0659092 23.2763181,12.2375026 C22.8831386,10.0659092 22.2433427,8.30987578 21.3664594,7.00758182 C21.3312933,6.95682303 21.2940853,6.90981598 21.2586924,6.86016064 C21.7562357,6.06148213 22.3393121,5.30914861 23.010644,4.60779456 C23.0975383,4.51642874 23.1876088,4.43102156 23.2763181,4.34274541 L23.2763181,4.34274541 Z M27.3344843,13.0739191 L23.7307547,13.0739191 C24.0862725,10.6829595 24.7217576,8.77906354 25.6188331,7.40857625 C26.5649142,9.10083013 27.1377811,10.9945743 27.3344843,13.0739191 L27.3344843,13.0739191 Z M25.9913667,6.88995384 C27.587907,4.83819533 29.8328645,3.79852292 32.6724691,3.79852292 C35.9406462,3.79852292 38.3049415,5.11913419 39.9014817,7.83803974 C40.6038959,9.0165264 41.1572513,10.7771943 41.5472545,13.0739191 L27.9234595,13.0739191 C27.7151855,10.7928633 27.0681296,8.72609785 25.9913667,6.88995384 L25.9913667,6.88995384 Z M32.7325918,0.569822576 C37.5115492,0.569822576 41.1341097,2.37793891 43.4995394,5.94341278 C45.1369177,8.42551755 45.9672911,11.2232096 45.9672911,14.2585851 C45.9672911,14.914477 45.8538521,15.3814578 45.6306042,15.6476104 C45.3862566,15.8530732 44.7770893,16.0914188 43.2674433,16.0914188 L27.9513655,16.0914188 C27.9815403,15.6469483 28.0001443,15.1962986 28.0001443,14.7350557 C28.0001443,14.36562 27.9853972,14.0032464 27.9647513,13.6437417 L42.2321991,13.6437417 L42.1800172,13.3153544 C41.7766281,10.7869047 41.1803928,8.84769825 40.4087809,7.55379052 C38.7235313,4.68393275 36.1207873,3.22892103 32.6724691,3.22892103 C29.722148,3.22892103 27.3725998,4.28602798 25.671015,6.36780039 C25.1805049,5.60994961 24.615125,4.89270585 23.9707916,4.21960018 C23.8809479,4.12514469 23.7895161,4.03267542 23.6978574,3.94175098 C26.1499544,1.70571599 29.1835397,0.569822576 32.7325918,0.569822576 L32.7325918,0.569822576 Z M3.28564671,16.0914188 C1.77554697,16.0914188 1.1666065,15.8530732 0.922485812,15.6476104 C0.699011015,15.3814578 0.58579891,14.914477 0.58579891,14.2585851 C0.58579891,11.2232096 1.41571851,8.42551755 3.0530968,5.94407485 C5.41852648,2.37793891 9.04108697,0.569822576 13.8204982,0.569822576 C17.3693234,0.569822576 20.4024549,1.70571599 22.8547788,3.94175098 C22.763347,4.03267542 22.6719152,4.12514469 22.5818447,4.21960018 C21.937965,4.89248516 21.3721313,5.60994961 20.881848,6.3675797 C19.1816246,4.28624867 16.8316226,3.22892103 13.8799402,3.22892103 C10.4320758,3.22892103 7.82933175,4.68393275 6.14498973,7.55224569 C5.37201649,8.84791894 4.77600808,10.7871254 4.37284593,13.3153544 L4.320664,13.6437417 L18.5881118,13.6437417 C18.567239,14.0032464 18.5529457,14.36562 18.5529457,14.7350557 C18.5529457,15.1962986 18.5715497,15.6469483 18.6014976,16.0914188 L3.28564671,16.0914188 Z M19.2376634,16.6610207 L22.7533644,16.6610207 C22.434374,18.4684749 21.9184535,20.0925355 21.2174006,21.4939194 C21.1098604,21.7146098 20.9866657,21.9284588 20.8500851,22.1356871 C19.9825038,20.5153783 19.4434417,18.6862963 19.2376634,16.6610207 L19.2376634,16.6610207 Z M3.4494526,26.3557286 C1.82704827,25.2880285 1.00438876,24.3520806 1.00438876,23.5745884 C1.00438876,23.1616767 1.16910216,22.8149721 1.50692345,22.5152745 C1.8545005,22.2087356 2.25993143,22.0599903 2.74681154,22.0599903 C3.23959049,22.0599903 3.70673222,22.2455909 4.17886527,22.6317991 L5.79605141,23.902755 C7.87493422,25.52505 10.3329301,26.3471217 13.1022026,26.3471217 C14.9793909,26.3471217 16.7386026,25.9167754 18.3306053,25.0682209 C19.3252383,24.538564 20.1447215,23.9067274 20.7813411,23.1808767 C21.3176806,24.0387003 21.947267,24.8378202 22.6748646,25.5720571 C22.7333991,25.6307607 22.7928412,25.6881402 22.8518294,25.7459611 C20.3062586,28.0137755 17.0319558,29.1651172 13.1022026,29.1651172 C9.54725171,29.1651172 6.29926674,28.2199003 3.4494526,26.3557286 L3.4494526,26.3557286 Z M43.1038642,26.3552872 C40.2533695,28.2199003 37.0051576,29.1651172 33.4504336,29.1651172 C29.5209073,29.1651172 26.2466044,28.0137755 23.7010337,25.7459611 C23.7597951,25.6881402 23.8192371,25.6309814 23.8773178,25.5722778 C24.605823,24.8378202 25.2349556,24.0384796 25.771522,23.180656 C26.4083684,23.9069481 27.2276248,24.5387847 28.2220309,25.0682209 C29.8142605,25.9167754 31.5734722,26.3471217 33.4504336,26.3471217 C36.2194792,26.3471217 38.6779289,25.52505 40.7574923,23.9020929 L42.3783085,22.6284887 C42.8463578,22.2455909 43.3130457,22.0599903 43.8060516,22.0599903 C44.2927048,22.0599903 44.6981357,22.2087356 45.0454859,22.5148332 C45.3837609,22.8147514 45.5480206,23.1612353 45.5480206,23.5745884 C45.5480206,24.3523013 44.7253611,25.2880285 43.1038642,26.3552872 L43.1038642,26.3552872 Z" id="path-1"></path>
    </defs>
    <g id="webportal" stroke="none" stroke-width="1" fill="none" fill-rule="evenodd">
        <g id="location-setup" transform="translate(-17.000000, -14.000000)">
            <g id="Navbar">
                <g id="logo" transform="translate(18.000000, 13.000000)">
                    <g id="assets/logo" transform="translate(0.000000, 2.000000)">
                        <g id="logo">
                            <mask id="mask-2" fill="white">
                                <use xlink:href="#path-1"></use>
                            </mask>
                            <use id="Mask" stroke="#D2232A" fill="#FEFEFE" xlink:href="#path-1"></use>
                            <g id="colors/red" mask="url(#mask-2)" fill="#D2232A">
                                <rect id="color" x="0" y="0" width="46.5526362" height="30"></rect>
                            </g>
                        </g>
                    </g>
                    <path d="M66.972565,22 C67.1822004,22 67.3622134,21.9544271 67.512604,21.8632812 C67.6629947,21.7721354 67.776927,21.6490885 67.8544009,21.4941406 C67.9318749,21.3391927 67.9706119,21.1865234 67.9706119,21.0361328 C67.9706119,20.7672526 67.8851626,20.5382487 67.7142642,20.3491211 C67.5433658,20.1599935 67.2961327,20.0654297 66.972565,20.0654297 L66.972565,20.0654297 L64.3817447,20.0654297 L64.3817447,17.9394531 L66.6786197,17.9394531 C66.9976301,17.9394531 67.2482811,17.8426107 67.4305728,17.6489258 C67.6128645,17.4552409 67.7040103,17.2307943 67.7040103,16.9755859 C67.7040103,16.7021484 67.6151431,16.4720052 67.4374087,16.2851562 C67.2596744,16.0983073 67.0067447,16.0048828 66.6786197,16.0048828 L66.6786197,16.0048828 L64.3817447,16.0048828 L64.3817447,13.9609375 L66.8495181,13.9609375 C67.0591535,13.9609375 67.2380272,13.9153646 67.3861392,13.8242188 C67.5342512,13.7330729 67.6470441,13.6157227 67.7245181,13.472168 C67.8019921,13.3286133 67.840729,13.1702474 67.840729,12.9970703 C67.840729,12.7327474 67.7552798,12.5060221 67.5843814,12.3168945 C67.413483,12.1277669 67.1685285,12.0332031 66.8495181,12.0332031 L66.8495181,12.0332031 L63.3768619,12.0332031 C63.0213931,12.0332031 62.7502343,12.1448568 62.5633853,12.3681641 C62.3765363,12.5914714 62.2831119,12.8854167 62.2831119,13.25 L62.2831119,13.25 L62.2831119,20.9472656 C62.2831119,21.2617188 62.3856509,21.5157878 62.590729,21.7094727 C62.7958072,21.9031576 63.0532941,22 63.36319,22 L63.36319,22 L66.972565,22 Z M74.8530337,22 C75.0626691,22 75.2426822,21.9544271 75.3930728,21.8632812 C75.5434634,21.7721354 75.6573957,21.6490885 75.7348697,21.4941406 C75.8123436,21.3391927 75.8510806,21.1865234 75.8510806,21.0361328 C75.8510806,20.7672526 75.7656314,20.5382487 75.594733,20.3491211 C75.4238345,20.1599935 75.1766014,20.0654297 74.8530337,20.0654297 L74.8530337,20.0654297 L72.2622134,20.0654297 L72.2622134,17.9394531 L74.5590884,17.9394531 C74.8780988,17.9394531 75.1287499,17.8426107 75.3110415,17.6489258 C75.4933332,17.4552409 75.584479,17.2307943 75.584479,16.9755859 C75.584479,16.7021484 75.4956119,16.4720052 75.3178775,16.2851562 C75.1401431,16.0983073 74.8872134,16.0048828 74.5590884,16.0048828 L74.5590884,16.0048828 L72.2622134,16.0048828 L72.2622134,13.9609375 L74.7299869,13.9609375 C74.9396223,13.9609375 75.118496,13.9153646 75.266608,13.8242188 C75.4147199,13.7330729 75.5275129,13.6157227 75.6049869,13.472168 C75.6824608,13.3286133 75.7211978,13.1702474 75.7211978,12.9970703 C75.7211978,12.7327474 75.6357486,12.5060221 75.4648501,12.3168945 C75.2939517,12.1277669 75.0489973,12.0332031 74.7299869,12.0332031 L74.7299869,12.0332031 L71.2573306,12.0332031 C70.9018619,12.0332031 70.630703,12.1448568 70.443854,12.3681641 C70.2570051,12.5914714 70.1635806,12.8854167 70.1635806,13.25 L70.1635806,13.25 L70.1635806,20.9472656 C70.1635806,21.2617188 70.2661197,21.5157878 70.4711978,21.7094727 C70.6762759,21.9031576 70.9337629,22 71.2436587,22 L71.2436587,22 L74.8530337,22 Z M90.743854,22.0820312 C91.0583072,22.0820312 91.3123762,21.9874674 91.5060611,21.7983398 C91.699746,21.6092122 91.7965884,21.3414714 91.7965884,20.9951172 L91.7965884,20.9951172 L91.7965884,13.0380859 C91.7965884,12.6917318 91.699746,12.4239909 91.5060611,12.2348633 C91.3123762,12.0457357 91.0583072,11.9511719 90.743854,11.9511719 C90.4385155,11.9511719 90.1867251,12.0480143 89.988483,12.2416992 C89.7902408,12.4353841 89.6911197,12.7008464 89.6911197,13.0380859 L89.6911197,13.0380859 L89.6911197,16.0048828 L85.2956119,16.0048828 L85.2956119,13.0380859 C85.2956119,12.6917318 85.1987694,12.4239909 85.0050845,12.2348633 C84.8113996,12.0457357 84.5596093,11.9511719 84.2497134,11.9511719 C83.9443749,11.9511719 83.6925845,12.0480143 83.4943423,12.2416992 C83.2961001,12.4353841 83.196979,12.7008464 83.196979,13.0380859 L83.196979,13.0380859 L83.196979,20.9951172 C83.196979,21.3323568 83.2961001,21.597819 83.4943423,21.7915039 C83.6925845,21.9851888 83.9443749,22.0820312 84.2497134,22.0820312 C84.5596093,22.0820312 84.8113996,21.9874674 85.0050845,21.7983398 C85.1987694,21.6092122 85.2956119,21.3414714 85.2956119,20.9951172 L85.2956119,20.9951172 L85.2956119,17.9394531 L89.6911197,17.9394531 L89.6911197,20.9951172 C89.6911197,21.3323568 89.7902408,21.597819 89.988483,21.7915039 C90.1867251,21.9851888 90.4385155,22.0820312 90.743854,22.0820312 Z M97.7151431,22.1708984 C98.2437889,22.1708984 98.7348371,22.0672201 99.1882876,21.8598633 C99.6417382,21.6525065 100.024551,21.3722331 100.336725,21.019043 C100.6489,20.6658529 100.892715,20.253418 101.06817,19.7817383 C101.243626,19.3100586 101.331354,18.8121745 101.331354,18.2880859 C101.331354,17.7685547 101.243626,17.2763672 101.06817,16.8115234 C100.892715,16.3466797 100.644342,15.9319661 100.323053,15.5673828 C100.001764,15.2027995 99.6166731,14.9145508 99.1677798,14.7026367 C98.7188866,14.4907227 98.2346744,14.3847656 97.7151431,14.3847656 C97.2001691,14.3847656 96.7193749,14.4895833 96.2727603,14.6992188 C95.8261457,14.9088542 95.4410546,15.1982422 95.1174869,15.5673828 C94.7939191,15.9365234 94.5444074,16.3569336 94.3689517,16.8286133 C94.193496,17.300293 94.1057681,17.7867839 94.1057681,18.2880859 C94.1057681,18.9899089 94.2572981,19.6381836 94.560358,20.2329102 C94.8634178,20.8276367 95.2906639,21.2993164 95.8420962,21.6479492 C96.3935285,21.996582 97.0178775,22.1708984 97.7151431,22.1708984 Z M97.7151431,20.3183594 C97.3733462,20.3183594 97.0828189,20.2215169 96.8435611,20.027832 C96.6043033,19.8341471 96.4242902,19.5812174 96.303522,19.269043 C96.1827538,18.9568685 96.1223697,18.6298828 96.1223697,18.2880859 C96.1223697,17.9508464 96.1816145,17.6227214 96.300104,17.3037109 C96.4185936,16.9847005 96.599746,16.7260742 96.8435611,16.527832 C97.0873762,16.3295898 97.3779035,16.2304688 97.7151431,16.2304688 C98.0614973,16.2304688 98.3554426,16.3307292 98.596979,16.53125 C98.8385155,16.7317708 99.0185285,16.9903971 99.1370181,17.3071289 C99.2555077,17.6238607 99.3147525,17.9508464 99.3147525,18.2880859 C99.3147525,18.6298828 99.2543684,18.9568685 99.1336001,19.269043 C99.0128319,19.5812174 98.8328189,19.8341471 98.5935611,20.027832 C98.3543033,20.2215169 98.0614973,20.3183594 97.7151431,20.3183594 Z M106.901276,22.1708984 C107.593984,22.1708984 108.192129,22.0512695 108.69571,21.8120117 C109.19929,21.5727539 109.579824,21.230957 109.837311,20.7866211 C110.094798,20.3422852 110.223542,19.8216146 110.223542,19.2246094 L110.223542,19.2246094 L110.223542,15.5878906 C110.223542,15.3691406 110.180247,15.1743164 110.093659,15.003418 C110.00707,14.8325195 109.887441,14.7003581 109.734772,14.6069336 C109.582103,14.5135091 109.407786,14.4667969 109.211823,14.4667969 C108.911042,14.4667969 108.668366,14.5704753 108.483795,14.777832 C108.299225,14.9851888 108.20694,15.2552083 108.20694,15.5878906 L108.20694,15.5878906 L108.20694,19.1835938 C108.20694,19.4570312 108.146556,19.6917318 108.025788,19.8876953 C107.905019,20.0836589 107.746654,20.2329102 107.55069,20.3354492 C107.354726,20.4379883 107.138255,20.4892578 106.901276,20.4892578 C106.550364,20.4892578 106.246165,20.3707682 105.988678,20.1337891 C105.731191,19.8968099 105.602448,19.5800781 105.602448,19.1835938 L105.602448,19.1835938 L105.602448,15.5878906 C105.602448,15.3691406 105.559154,15.1743164 105.472565,15.003418 C105.385976,14.8325195 105.266348,14.7003581 105.113678,14.6069336 C104.961009,14.5135091 104.786693,14.4667969 104.590729,14.4667969 C104.289948,14.4667969 104.047272,14.5704753 103.862702,14.777832 C103.678131,14.9851888 103.585846,15.2552083 103.585846,15.5878906 L103.585846,15.5878906 L103.585846,19.2246094 C103.585846,20.1315104 103.875234,20.8492839 104.45401,21.3779297 C105.032786,21.9065755 105.848542,22.1708984 106.901276,22.1708984 Z M115.150885,22.1708984 C115.711432,22.1708984 116.211595,22.0672201 116.651374,21.8598633 C117.091152,21.6525065 117.429531,21.3699544 117.66651,21.012207 C117.903489,20.6544596 118.021979,20.25 118.021979,19.7988281 C118.021979,19.2747396 117.863613,18.8577474 117.546881,18.5478516 C117.23015,18.2379557 116.847337,17.9907227 116.398444,17.8061523 C115.949551,17.621582 115.524583,17.441569 115.123542,17.2661133 C114.7225,17.0906576 114.521979,16.9049479 114.521979,16.7089844 C114.521979,16.5266927 114.58692,16.3876953 114.716803,16.2919922 C114.846686,16.1962891 115.009609,16.1484375 115.205573,16.1484375 C115.401536,16.1484375 115.579271,16.1803385 115.738776,16.2441406 C115.898281,16.3079427 116.125006,16.4059245 116.418952,16.5380859 C116.712897,16.6702474 116.912279,16.7363281 117.017096,16.7363281 C117.249518,16.7363281 117.444342,16.6451823 117.601569,16.4628906 C117.758795,16.280599 117.837409,16.0732422 117.837409,15.8408203 C117.837409,15.5354818 117.704108,15.2711589 117.437506,15.0478516 C117.170905,14.8245443 116.843919,14.6582031 116.456549,14.5488281 C116.06918,14.4394531 115.690924,14.3847656 115.321784,14.3847656 C114.793138,14.3847656 114.321458,14.4838867 113.906745,14.6821289 C113.492031,14.8803711 113.168463,15.1572266 112.936042,15.5126953 C112.70362,15.8681641 112.587409,16.2760417 112.587409,16.7363281 C112.587409,17.2558594 112.744635,17.6728516 113.059088,17.9873047 C113.373542,18.3017578 113.76319,18.5546875 114.228034,18.7460938 C114.692877,18.9375 115.118984,19.117513 115.506354,19.2861328 C115.893724,19.4547526 116.087409,19.6370443 116.087409,19.8330078 C116.087409,20.0289714 116.029303,20.1736654 115.913092,20.2670898 C115.796881,20.3605143 115.590664,20.4072266 115.29444,20.4072266 C115.07569,20.4072266 114.88998,20.3798828 114.737311,20.3251953 C114.584642,20.2705078 114.404629,20.1839193 114.197272,20.0654297 C113.989915,19.9469401 113.817877,19.8592122 113.681159,19.8022461 C113.54444,19.7452799 113.384935,19.7167969 113.202643,19.7167969 C112.947435,19.7167969 112.738939,19.8204753 112.577155,20.027832 C112.415371,20.2351888 112.334479,20.430013 112.334479,20.6123047 C112.334479,20.8948568 112.48487,21.156901 112.785651,21.3984375 C113.086432,21.639974 113.456712,21.8291016 113.896491,21.9658203 C114.336269,22.1025391 114.754401,22.1708984 115.150885,22.1708984 Z M121.110456,13.7148438 C121.424909,13.7148438 121.69265,13.5997721 121.913678,13.3696289 C122.134707,13.1394857 122.245221,12.8671875 122.245221,12.5527344 C122.245221,12.3658854 122.192812,12.1870117 122.087995,12.0161133 C121.983177,11.8452148 121.84418,11.7073568 121.671002,11.6025391 C121.497825,11.4977214 121.310976,11.4453125 121.110456,11.4453125 C120.814232,11.4453125 120.551048,11.5581055 120.320905,11.7836914 C120.090762,12.0092773 119.97569,12.265625 119.97569,12.5527344 C119.97569,12.8535156 120.090762,13.1223958 120.320905,13.359375 C120.551048,13.5963542 120.814232,13.7148438 121.110456,13.7148438 Z M121.110456,22.0820312 C121.301862,22.0820312 121.475039,22.035319 121.629987,21.9418945 C121.784935,21.8484701 121.905703,21.7163086 121.992292,21.5454102 C122.07888,21.3745117 122.122174,21.1796875 122.122174,20.9609375 L122.122174,20.9609375 L122.122174,15.5878906 C122.122174,15.3691406 122.07888,15.1743164 121.992292,15.003418 C121.905703,14.8325195 121.786074,14.7003581 121.633405,14.6069336 C121.480736,14.5135091 121.306419,14.4667969 121.110456,14.4667969 C120.809674,14.4667969 120.566999,14.5704753 120.382428,14.777832 C120.197858,14.9851888 120.105573,15.2552083 120.105573,15.5878906 L120.105573,15.5878906 L120.105573,20.9609375 C120.105573,21.2936198 120.197858,21.5636393 120.382428,21.7709961 C120.566999,21.9783529 120.809674,22.0820312 121.110456,22.0820312 Z M130.269245,22.0820312 C130.460651,22.0820312 130.633828,22.035319 130.788776,21.9418945 C130.943724,21.8484701 131.064492,21.7163086 131.151081,21.5454102 C131.237669,21.3745117 131.280963,21.1796875 131.280963,20.9609375 L131.280963,20.9609375 L131.280963,17.0986328 C131.280963,16.5380859 131.162474,16.0538737 130.925495,15.6459961 C130.688516,15.2381185 130.360391,14.925944 129.94112,14.7094727 C129.521849,14.4930013 129.047891,14.3847656 128.519245,14.3847656 C127.616901,14.3847656 126.969766,14.6604818 126.577838,15.2119141 C126.54138,14.9794922 126.442259,14.7972005 126.280475,14.6650391 C126.118691,14.5328776 125.907917,14.4667969 125.648151,14.4667969 C125.34737,14.4667969 125.104694,14.5704753 124.920124,14.777832 C124.735553,14.9851888 124.643268,15.2552083 124.643268,15.5878906 L124.643268,15.5878906 L124.643268,20.9609375 C124.643268,21.2936198 124.735553,21.5636393 124.920124,21.7709961 C125.104694,21.9783529 125.34737,22.0820312 125.648151,22.0820312 C125.839557,22.0820312 126.012734,22.035319 126.167682,21.9418945 C126.32263,21.8484701 126.443398,21.7163086 126.529987,21.5454102 C126.616575,21.3745117 126.65987,21.1796875 126.65987,20.9609375 L126.65987,20.9609375 L126.65987,17.4472656 C126.65987,17.1783854 126.71,16.9414062 126.81026,16.7363281 C126.910521,16.53125 127.058633,16.3683268 127.254596,16.2475586 C127.45056,16.1267904 127.680703,16.0664062 127.945026,16.0664062 C128.336953,16.0664062 128.654824,16.1837565 128.898639,16.418457 C129.142454,16.6531576 129.264362,16.9960938 129.264362,17.4472656 L129.264362,17.4472656 L129.264362,20.9609375 C129.264362,21.2936198 129.356647,21.5636393 129.541217,21.7709961 C129.725788,21.9783529 129.968463,22.0820312 130.269245,22.0820312 Z M136.837213,25.0488281 C137.607396,25.0488281 138.285293,24.9121094 138.870905,24.6386719 C139.456517,24.3652344 139.911107,23.9550781 140.234674,23.4082031 C140.558242,22.8613281 140.720026,22.1959635 140.720026,21.4121094 L140.720026,21.4121094 L140.720026,15.5878906 C140.720026,15.3691406 140.676732,15.1743164 140.590143,15.003418 C140.503555,14.8325195 140.383926,14.7003581 140.231256,14.6069336 C140.078587,14.5135091 139.904271,14.4667969 139.708307,14.4667969 C139.165989,14.4667969 138.831029,14.7470703 138.703424,15.3076172 C138.580377,15.1116536 138.419733,14.9441732 138.221491,14.8051758 C138.023249,14.6661784 137.804499,14.5613607 137.565241,14.4907227 C137.325983,14.4200846 137.087864,14.3847656 136.850885,14.3847656 C136.358698,14.3847656 135.906387,14.4907227 135.493952,14.7026367 C135.081517,14.9145508 134.728327,15.2062174 134.434381,15.5776367 C134.140436,15.949056 133.917129,16.3694661 133.76446,16.8388672 C133.61179,17.3082682 133.535456,17.7958984 133.535456,18.3017578 C133.535456,18.8121745 133.599258,19.297526 133.726862,19.7578125 C133.854466,20.218099 134.05043,20.6328125 134.314752,21.0019531 C134.579075,21.3710938 134.904922,21.6582031 135.292292,21.8632812 C135.679661,22.0683594 136.130833,22.1708984 136.645807,22.1708984 C137.561823,22.1708984 138.238581,21.851888 138.676081,21.2138672 L138.676081,21.2138672 L138.703424,21.2138672 L138.703424,21.6923828 C138.703424,22.0250651 138.630508,22.3110352 138.484674,22.550293 C138.338841,22.7895508 138.136042,22.9718424 137.876276,23.097168 C137.61651,23.2224935 137.322565,23.2851562 136.99444,23.2851562 C136.652643,23.2851562 136.380345,23.2532552 136.177545,23.1894531 C135.974746,23.125651 135.684219,23.0208333 135.305963,22.875 C134.927708,22.7291667 134.649713,22.65625 134.471979,22.65625 C134.280573,22.65625 134.097142,22.7553711 133.921686,22.9536133 C133.74623,23.1518555 133.658502,23.3466797 133.658502,23.5380859 C133.658502,23.8707682 133.848769,24.1510417 134.229303,24.3789062 C134.609837,24.6067708 135.05987,24.7753906 135.579401,24.8847656 C136.098932,24.9941406 136.518203,25.0488281 136.837213,25.0488281 Z M137.117487,20.3183594 C136.784805,20.3183594 136.499974,20.2237956 136.262995,20.034668 C136.026016,19.8455404 135.848281,19.5960286 135.729792,19.2861328 C135.611302,18.976237 135.552057,18.6344401 135.552057,18.2607422 C135.552057,17.9235026 135.611302,17.6010742 135.729792,17.293457 C135.848281,16.9858398 136.028294,16.7317708 136.269831,16.53125 C136.511367,16.3307292 136.793919,16.2304688 137.117487,16.2304688 C137.459284,16.2304688 137.75095,16.3330078 137.992487,16.5380859 C138.234023,16.7431641 138.412897,17.0086263 138.529108,17.3344727 C138.645319,17.660319 138.703424,17.991862 138.703424,18.3291016 C138.703424,18.8759766 138.565566,19.3442383 138.28985,19.7338867 C138.014134,20.1235352 137.623346,20.3183594 137.117487,20.3183594 Z M151.518073,22.1708984 C152.165208,22.1708984 152.762213,22.0364583 153.309088,21.7675781 C153.855963,21.4986979 154.291185,21.1158854 154.614752,20.6191406 C154.93832,20.1223958 155.100104,19.555013 155.100104,18.9169922 C155.100104,18.0966797 154.885911,17.4711914 154.457526,17.0405273 C154.029141,16.6098633 153.503913,16.2919922 152.881842,16.0869141 C152.259772,15.8818359 151.694668,15.6892904 151.18653,15.5092773 C150.678392,15.3292643 150.424323,15.0888672 150.424323,14.7880859 C150.424323,14.5100911 150.537116,14.2890625 150.762702,14.125 C150.988288,13.9609375 151.258307,13.8789062 151.57276,13.8789062 C151.759609,13.8789062 151.931647,13.8959961 152.088874,13.9301758 C152.2461,13.9643555 152.403327,14.0110677 152.560553,14.0703125 C152.71778,14.1295573 152.870449,14.1831055 153.018561,14.230957 C153.166673,14.2788086 153.304531,14.3027344 153.432135,14.3027344 C153.71013,14.3027344 153.935716,14.2013346 154.108893,13.9985352 C154.28207,13.7957357 154.368659,13.5507812 154.368659,13.2636719 C154.368659,12.9355469 154.209154,12.6655273 153.890143,12.4536133 C153.571133,12.2416992 153.194017,12.0901693 152.758795,11.9990234 C152.323574,11.9078776 151.946458,11.8623047 151.627448,11.8623047 C151.012213,11.8623047 150.437995,11.9921875 149.904792,12.2519531 C149.371588,12.5117188 148.946621,12.8819987 148.629889,13.362793 C148.313157,13.8435872 148.154792,14.4029948 148.154792,15.0410156 C148.154792,15.7701823 148.363288,16.3193359 148.78028,16.6884766 C149.197272,17.0576172 149.852383,17.3834635 150.745612,17.6660156 C151.638841,17.9485677 152.209642,18.1445312 152.458014,18.2539062 C152.706387,18.3632812 152.830573,18.5957031 152.830573,18.9511719 C152.830573,19.1835938 152.774746,19.3909505 152.663092,19.5732422 C152.551439,19.7555339 152.388516,19.8979492 152.174323,20.0004883 C151.96013,20.1030273 151.702643,20.1542969 151.401862,20.1542969 C151.192226,20.1542969 150.991706,20.1303711 150.800299,20.0825195 C150.608893,20.034668 150.385586,19.9663086 150.130377,19.8774414 C149.875169,19.7885742 149.665534,19.7213542 149.501471,19.6757812 C149.337409,19.6302083 149.187018,19.6074219 149.050299,19.6074219 C148.767747,19.6074219 148.541022,19.7019857 148.370124,19.8911133 C148.199225,20.0802409 148.113776,20.3160807 148.113776,20.5986328 C148.113776,21.1774089 148.481777,21.5841471 149.21778,21.8188477 C149.953782,22.0535482 150.720547,22.1708984 151.518073,22.1708984 Z M160.683698,22.1708984 C161.043724,22.1708984 161.425397,22.1219076 161.828717,22.0239258 C162.232038,21.925944 162.594342,21.7960612 162.915631,21.6342773 C163.23692,21.4724935 163.494407,21.2890625 163.688092,21.0839844 C163.881777,20.8789062 163.97862,20.6715495 163.97862,20.4619141 C163.97862,20.3160807 163.939883,20.1770833 163.862409,20.0449219 C163.784935,19.9127604 163.681256,19.8045247 163.551374,19.7202148 C163.421491,19.6359049 163.28819,19.59375 163.151471,19.59375 C163.005638,19.59375 162.772077,19.6814779 162.450788,19.8569336 C162.129499,20.0323893 161.861758,20.1679688 161.647565,20.2636719 C161.433372,20.359375 161.173607,20.4072266 160.868268,20.4072266 C160.371523,20.4072266 159.947695,20.2841797 159.596784,20.0380859 C159.245872,19.7919922 159.036237,19.4296875 158.967877,18.9511719 L158.967877,18.9511719 L163.260846,18.9511719 C163.848737,18.9511719 164.142682,18.6503906 164.142682,18.0488281 C164.142682,17.6204427 164.053815,17.1886393 163.876081,16.753418 C163.698346,16.3181966 163.452252,15.9228516 163.137799,15.5673828 C162.823346,15.2119141 162.439394,14.925944 161.985944,14.7094727 C161.532493,14.4930013 161.043724,14.3847656 160.519635,14.3847656 C160.009219,14.3847656 159.529564,14.488444 159.08067,14.6958008 C158.631777,14.9031576 158.246686,15.1914062 157.925397,15.5605469 C157.604108,15.9296875 157.353457,16.351237 157.173444,16.8251953 C156.993431,17.2991536 156.903424,17.7867839 156.903424,18.2880859 C156.903424,19.0263672 157.060651,19.6905924 157.375104,20.2807617 C157.689557,20.870931 158.136172,21.3334961 158.714948,21.668457 C159.293724,22.003418 159.949974,22.1708984 160.683698,22.1708984 Z M162.126081,17.6044922 L158.920026,17.6044922 C158.979271,17.1533203 159.152448,16.7841797 159.439557,16.4970703 C159.726667,16.2099609 160.086693,16.0664062 160.519635,16.0664062 C160.970807,16.0664062 161.337669,16.2076823 161.620221,16.4902344 C161.902773,16.7727865 162.071393,17.1442057 162.126081,17.6044922 L162.126081,17.6044922 Z M167.237995,22.0820312 C167.429401,22.0820312 167.602578,22.035319 167.757526,21.9418945 C167.912474,21.8484701 168.033242,21.7163086 168.119831,21.5454102 C168.206419,21.3745117 168.249713,21.1796875 168.249713,20.9609375 L168.249713,20.9609375 L168.249713,17.8710938 C168.249713,17.515625 168.352252,17.2478841 168.557331,17.0678711 C168.762409,16.8878581 169.065469,16.7067057 169.46651,16.5244141 C169.708047,16.4287109 169.917682,16.344401 170.095417,16.2714844 C170.273151,16.1985677 170.413288,16.1097005 170.515827,16.0048828 C170.618366,15.9000651 170.669635,15.7473958 170.669635,15.546875 C170.669635,15.2005208 170.571654,14.9339193 170.37569,14.7470703 C170.179726,14.5602214 169.951862,14.4667969 169.692096,14.4667969 C169.3822,14.4667969 169.120156,14.5328776 168.905963,14.6650391 C168.691771,14.7972005 168.482135,15.0113932 168.277057,15.3076172 L168.277057,15.3076172 L168.249713,15.3076172 C168.249713,14.7470703 167.921588,14.4667969 167.265338,14.4667969 C166.991901,14.4667969 166.751504,14.5556641 166.544147,14.7333984 C166.33679,14.9111328 166.233112,15.1595052 166.233112,15.4785156 L166.233112,15.4785156 L166.233112,20.9609375 C166.233112,21.2936198 166.325397,21.5636393 166.509967,21.7709961 C166.694538,21.9783529 166.937213,22.0820312 167.237995,22.0820312 Z M174.981745,22.0820312 C175.296198,22.0820312 175.529759,22.0148112 175.682428,21.8803711 C175.835098,21.745931 175.96612,21.5328776 176.075495,21.2412109 L176.075495,21.2412109 L178.105768,16.0390625 C178.187799,15.8203125 178.228815,15.624349 178.228815,15.4511719 C178.228815,15.1367188 178.127415,14.894043 177.924616,14.7231445 C177.721816,14.5522461 177.474583,14.4667969 177.182917,14.4667969 C176.736302,14.4667969 176.437799,14.7060547 176.287409,15.1845703 L176.287409,15.1845703 L174.995417,19.15625 L174.968073,19.15625 L173.682917,15.1845703 C173.523411,14.7060547 173.224909,14.4667969 172.787409,14.4667969 C172.495742,14.4667969 172.24737,14.5533854 172.042292,14.7265625 C171.837213,14.8997396 171.734674,15.141276 171.734674,15.4511719 C171.734674,15.624349 171.77569,15.8203125 171.857721,16.0390625 L171.857721,16.0390625 L173.887995,21.2412109 C174.006484,21.5374349 174.139785,21.7516276 174.287897,21.8837891 C174.436009,22.0159505 174.667292,22.0820312 174.981745,22.0820312 Z M181.166901,13.7148438 C181.481354,13.7148438 181.749095,13.5997721 181.970124,13.3696289 C182.191152,13.1394857 182.301667,12.8671875 182.301667,12.5527344 C182.301667,12.3658854 182.249258,12.1870117 182.14444,12.0161133 C182.039622,11.8452148 181.900625,11.7073568 181.727448,11.6025391 C181.554271,11.4977214 181.367422,11.4453125 181.166901,11.4453125 C180.870677,11.4453125 180.607493,11.5581055 180.37735,11.7836914 C180.147207,12.0092773 180.032135,12.265625 180.032135,12.5527344 C180.032135,12.8535156 180.147207,13.1223958 180.37735,13.359375 C180.607493,13.5963542 180.870677,13.7148438 181.166901,13.7148438 Z M181.166901,22.0820312 C181.358307,22.0820312 181.531484,22.035319 181.686432,21.9418945 C181.84138,21.8484701 181.962148,21.7163086 182.048737,21.5454102 C182.135325,21.3745117 182.17862,21.1796875 182.17862,20.9609375 L182.17862,20.9609375 L182.17862,15.5878906 C182.17862,15.3691406 182.135325,15.1743164 182.048737,15.003418 C181.962148,14.8325195 181.842519,14.7003581 181.68985,14.6069336 C181.537181,14.5135091 181.362864,14.4667969 181.166901,14.4667969 C180.86612,14.4667969 180.623444,14.5704753 180.438874,14.777832 C180.254303,14.9851888 180.162018,15.2552083 180.162018,15.5878906 L180.162018,15.5878906 L180.162018,20.9609375 C180.162018,21.2936198 180.254303,21.5636393 180.438874,21.7709961 C180.623444,21.9783529 180.86612,22.0820312 181.166901,22.0820312 Z M188.015143,22.1708984 C188.297695,22.1708984 188.634935,22.1230469 189.026862,22.0273438 C189.418789,21.9316406 189.759446,21.7789714 190.048835,21.5693359 C190.338223,21.3597005 190.482917,21.0976562 190.482917,20.7832031 C190.482917,20.6236979 190.44304,20.4767253 190.363288,20.3422852 C190.283535,20.2078451 190.177578,20.1007487 190.045417,20.0209961 C189.913255,19.9412435 189.7697,19.9013672 189.614752,19.9013672 C189.555508,19.9013672 189.408535,19.9446615 189.173835,20.03125 C188.939134,20.1178385 188.739752,20.1873372 188.57569,20.2397461 C188.411627,20.2921549 188.258958,20.3183594 188.117682,20.3183594 C187.598151,20.3183594 187.185716,20.1144206 186.880377,19.706543 C186.575039,19.2986654 186.42237,18.8258464 186.42237,18.2880859 C186.42237,17.9326172 186.486172,17.5976562 186.613776,17.2832031 C186.74138,16.96875 186.933926,16.714681 187.191413,16.5209961 C187.4489,16.3273112 187.757656,16.2304688 188.117682,16.2304688 C188.354661,16.2304688 188.64291,16.2965495 188.982428,16.4287109 C189.321946,16.5608724 189.564622,16.6269531 189.710456,16.6269531 C189.933763,16.6269531 190.118333,16.5221354 190.264167,16.3125 C190.41,16.1028646 190.482917,15.8841146 190.482917,15.65625 C190.482917,15.3554688 190.343919,15.1105143 190.065924,14.9213867 C189.78793,14.7322591 189.454108,14.5955404 189.06446,14.5112305 C188.674811,14.4269206 188.325039,14.3847656 188.015143,14.3847656 C187.500169,14.3847656 187.019375,14.4895833 186.57276,14.6992188 C186.126146,14.9088542 185.741055,15.1982422 185.417487,15.5673828 C185.093919,15.9365234 184.844407,16.3569336 184.668952,16.8286133 C184.493496,17.300293 184.405768,17.7867839 184.405768,18.2880859 C184.405768,18.9899089 184.557298,19.6381836 184.860358,20.2329102 C185.163418,20.8276367 185.590664,21.2993164 186.142096,21.6479492 C186.693529,21.996582 187.317877,22.1708984 188.015143,22.1708984 Z M195.922956,22.1708984 C196.282982,22.1708984 196.664655,22.1219076 197.067975,22.0239258 C197.471295,21.925944 197.8336,21.7960612 198.154889,21.6342773 C198.476178,21.4724935 198.733665,21.2890625 198.92735,21.0839844 C199.121035,20.8789062 199.217877,20.6715495 199.217877,20.4619141 C199.217877,20.3160807 199.179141,20.1770833 199.101667,20.0449219 C199.024193,19.9127604 198.920514,19.8045247 198.790631,19.7202148 C198.660749,19.6359049 198.527448,19.59375 198.390729,19.59375 C198.244896,19.59375 198.011335,19.6814779 197.690045,19.8569336 C197.368756,20.0323893 197.101016,20.1679688 196.886823,20.2636719 C196.67263,20.359375 196.412864,20.4072266 196.107526,20.4072266 C195.610781,20.4072266 195.186953,20.2841797 194.836042,20.0380859 C194.48513,19.7919922 194.275495,19.4296875 194.207135,18.9511719 L194.207135,18.9511719 L198.500104,18.9511719 C199.087995,18.9511719 199.38194,18.6503906 199.38194,18.0488281 C199.38194,17.6204427 199.293073,17.1886393 199.115338,16.753418 C198.937604,16.3181966 198.69151,15.9228516 198.377057,15.5673828 C198.062604,15.2119141 197.678652,14.925944 197.225202,14.7094727 C196.771751,14.4930013 196.282982,14.3847656 195.758893,14.3847656 C195.248476,14.3847656 194.768821,14.488444 194.319928,14.6958008 C193.871035,14.9031576 193.485944,15.1914062 193.164655,15.5605469 C192.843366,15.9296875 192.592715,16.351237 192.412702,16.8251953 C192.232689,17.2991536 192.142682,17.7867839 192.142682,18.2880859 C192.142682,19.0263672 192.299909,19.6905924 192.614362,20.2807617 C192.928815,20.870931 193.37543,21.3334961 193.954206,21.668457 C194.532982,22.003418 195.189232,22.1708984 195.922956,22.1708984 Z M197.365338,17.6044922 L194.159284,17.6044922 C194.218529,17.1533203 194.391706,16.7841797 194.678815,16.4970703 C194.965924,16.2099609 195.32595,16.0664062 195.758893,16.0664062 C196.210065,16.0664062 196.576927,16.2076823 196.859479,16.4902344 C197.142031,16.7727865 197.310651,17.1442057 197.365338,17.6044922 L197.365338,17.6044922 Z M203.87862,22.1708984 C204.439167,22.1708984 204.939329,22.0672201 205.379108,21.8598633 C205.818887,21.6525065 206.157266,21.3699544 206.394245,21.012207 C206.631224,20.6544596 206.749713,20.25 206.749713,19.7988281 C206.749713,19.2747396 206.591348,18.8577474 206.274616,18.5478516 C205.957884,18.2379557 205.575071,17.9907227 205.126178,17.8061523 C204.677285,17.621582 204.252318,17.441569 203.851276,17.2661133 C203.450234,17.0906576 203.249713,16.9049479 203.249713,16.7089844 C203.249713,16.5266927 203.314655,16.3876953 203.444538,16.2919922 C203.57442,16.1962891 203.737344,16.1484375 203.933307,16.1484375 C204.129271,16.1484375 204.307005,16.1803385 204.46651,16.2441406 C204.626016,16.3079427 204.852741,16.4059245 205.146686,16.5380859 C205.440631,16.6702474 205.640013,16.7363281 205.744831,16.7363281 C205.977252,16.7363281 206.172077,16.6451823 206.329303,16.4628906 C206.48653,16.280599 206.565143,16.0732422 206.565143,15.8408203 C206.565143,15.5354818 206.431842,15.2711589 206.165241,15.0478516 C205.898639,14.8245443 205.571654,14.6582031 205.184284,14.5488281 C204.796914,14.4394531 204.418659,14.3847656 204.049518,14.3847656 C203.520872,14.3847656 203.049193,14.4838867 202.634479,14.6821289 C202.219766,14.8803711 201.896198,15.1572266 201.663776,15.5126953 C201.431354,15.8681641 201.315143,16.2760417 201.315143,16.7363281 C201.315143,17.2558594 201.47237,17.6728516 201.786823,17.9873047 C202.101276,18.3017578 202.490924,18.5546875 202.955768,18.7460938 C203.420612,18.9375 203.846719,19.117513 204.234088,19.2861328 C204.621458,19.4547526 204.815143,19.6370443 204.815143,19.8330078 C204.815143,20.0289714 204.757038,20.1736654 204.640827,20.2670898 C204.524616,20.3605143 204.318398,20.4072266 204.022174,20.4072266 C203.803424,20.4072266 203.617715,20.3798828 203.465045,20.3251953 C203.312376,20.2705078 203.132363,20.1839193 202.925006,20.0654297 C202.71765,19.9469401 202.545612,19.8592122 202.408893,19.8022461 C202.272174,19.7452799 202.112669,19.7167969 201.930377,19.7167969 C201.675169,19.7167969 201.466673,19.8204753 201.304889,20.027832 C201.143105,20.2351888 201.062213,20.430013 201.062213,20.6123047 C201.062213,20.8948568 201.212604,21.156901 201.513385,21.3984375 C201.814167,21.639974 202.184446,21.8291016 202.624225,21.9658203 C203.064004,22.1025391 203.482135,22.1708984 203.87862,22.1708984 Z" id="EEHousingServices" fill="#D2232A" fill-rule="nonzero"></path>
                </g>
            </g>
        </g>
    </g>
</svg>